<?xml version="1.0" encoding="UTF-8" standalone="no"?>
<svg width="64px" height="58px" viewBox="0 0 64 58" version="1.1" xmlns="http://www.w3.org/2000/svg" xmlns:xlink="http://www.w3.org/1999/xlink" xmlns:sketch="http://www.bohemiancoding.com/sketch/ns">
    <!-- Generator: Sketch 3.4.3 (16618) - http://www.bohemiancoding.com/sketch -->
    <title>location</title>
    <desc>Created with Sketch.</desc>
    <defs></defs>
    <g id="Page-1" stroke="none" stroke-width="1" fill="none" fill-rule="evenodd" sketch:type="MSPage">
        <g id="Desktop" sketch:type="MSArtboardGroup" transform="translate(-147.000000, -749.000000)" fill="#4990E2">
            <g id="location" sketch:type="MSLayerGroup" transform="translate(147.000000, 749.000000)">
                <path d="M29.1744427,25.3986047 L10.24,25.3986047 C9.47985067,25.3986047 8.81117867,25.8951453 8.60040533,26.6167733 L4.96708267,39.0452965 L30.4416427,41.7989477 L32.4406613,32.3471395 C31.1965013,30.1524128 30.05184,27.8027384 29.1744427,25.3986047 L29.1744427,25.3986047 Z" id="Shape" sketch:type="MSShapeGroup"></path>
                <path d="M52.9670827,44.233936 L60.617728,45.0607733 L58.3333547,37.2464535 C58.026496,37.6925814 57.7211733,38.1272442 57.4204587,38.5450465 C55.8749013,40.695093 54.330368,42.6249419 52.9670827,44.233936 L52.9670827,44.233936 Z" id="Shape" sketch:type="MSShapeGroup"></path>
                <path d="M36.3764053,38.4695116 L35.5551573,42.3518023 L39.6904107,42.798436 C38.6520747,41.5232791 37.5468373,40.0985698 36.4397227,38.5587035 C36.419072,38.5293663 36.397568,38.4990174 36.3764053,38.4695116 L36.3764053,38.4695116 Z" id="Shape" sketch:type="MSShapeGroup"></path>
                <path d="M0.067072,55.8078023 C-0.0817493333,56.317157 0.0203093333,56.8651221 0.342698667,57.2889942 C0.665088,57.7126977 1.17026133,57.9617267 1.70666667,57.9617267 L27.02336,57.9617267 L29.3894827,46.7739651 L3.52512,43.9779942 L0.067072,55.8078023 L0.067072,55.8078023 Z" id="Shape" sketch:type="MSShapeGroup"></path>
                <path d="M62.153728,50.3151686 L34.503168,47.3259767 L32.2536107,57.9613895 L62.1197653,57.9613895 L62.1231787,57.9613895 C63.0657707,57.9613895 63.8298453,57.2062093 63.8298453,56.275343 C63.8298453,56.0735233 63.7940053,55.8797965 63.7282987,55.7010756 L62.153728,50.3151686 L62.153728,50.3151686 Z" id="Shape" sketch:type="MSShapeGroup"></path>
                <path d="M46.2209707,46.3770698 C46.40256,46.5691105 46.6582187,46.6780291 46.9251413,46.6780291 C47.1922347,46.6780291 47.44704,46.5691105 47.6305067,46.3770698 C49.1854507,44.7427849 52.256256,41.3607442 55.3335467,37.0807151 C59.2100693,31.6890756 63.8298453,23.7837093 63.8298453,16.738564 C63.8298453,7.52988372 56.2466133,0.0387790698 46.9251413,0.0387790698 C37.6046933,0.0387790698 30.0212907,7.52988372 30.0212907,16.738564 C30.0212907,23.7885988 34.64704,31.6991919 38.527488,37.0945407 C41.6039253,41.3742326 44.6675627,44.7463256 46.2209707,46.3770698 L46.2209707,46.3770698 Z M46.9251413,6.32250581 C52.6168747,6.32250581 57.2468907,10.8979302 57.2468907,16.5207267 C57.2468907,22.1413314 52.616704,26.7189477 46.9251413,26.7189477 C41.234432,26.7189477 36.6037333,22.1413314 36.6037333,16.5207267 C36.6040747,10.8979302 41.2342613,6.32250581 46.9251413,6.32250581 L46.9251413,6.32250581 Z" id="Shape" sketch:type="MSShapeGroup"></path>
            </g>
        </g>
    </g>
</svg>