<?xml version="1.0" encoding="UTF-8" standalone="no"?>
<svg width="40px" height="58px" viewBox="0 0 40 58" version="1.1" xmlns="http://www.w3.org/2000/svg" xmlns:xlink="http://www.w3.org/1999/xlink" xmlns:sketch="http://www.bohemiancoding.com/sketch/ns">
    <!-- Generator: Sketch 3.4.3 (16618) - http://www.bohemiancoding.com/sketch -->
    <title>sms</title>
    <desc>Created with Sketch.</desc>
    <defs></defs>
    <g id="Page-1" stroke="none" stroke-width="1" fill="none" fill-rule="evenodd" sketch:type="MSPage">
        <g id="Desktop" sketch:type="MSArtboardGroup" transform="translate(-815.000000, -759.000000)" fill="#4A90E2">
            <g id="sms" sketch:type="MSLayerGroup" transform="translate(814.500000, 759.000000)">
                <path d="M30.5207656,46.526875 L3.72236045,46.526875 L3.72236045,7.0560625 L30.5189155,7.0560625 L30.5189155,15.5585 L33.7140032,15.5585 L33.7140032,4.18325 C33.7140032,1.874125 31.806571,0 29.4514195,0 L4.78985646,0 C2.4291547,0 0.521722488,1.874125 0.521722488,4.18325 L0.521722488,53.2458125 C0.521722488,55.553125 2.4291547,57.4254375 4.78985646,57.4254375 L29.4514195,57.4254375 C31.806571,57.4254375 33.7158533,55.553125 33.7158533,53.2458125 L33.7158533,34.82175 L30.5207656,34.82175 L30.5207656,46.526875 L30.5207656,46.526875 Z M26.6392982,2.61725 C27.2424242,2.61725 27.7308453,3.09575 27.7308453,3.686625 C27.7308453,4.2775 27.2424242,4.756 26.6392982,4.756 C26.0361722,4.756 25.5477512,4.2775 25.5477512,3.686625 C25.5477512,3.09575 26.0361722,2.61725 26.6392982,2.61725 L26.6392982,2.61725 Z M11.3983413,3.0214375 L22.8429346,3.0214375 L22.8429346,4.2466875 L11.3983413,4.2466875 L11.3983413,3.0214375 L11.3983413,3.0214375 Z M22.3249123,52.9666875 L11.9108134,52.9666875 L11.9108134,49.8310625 L22.3249123,49.8310625 L22.3249123,52.9666875 L22.3249123,52.9666875 Z" id="Shape" sketch:type="MSShapeGroup"></path>
                <path d="M14.8931419,33.1615 L17.7700159,33.1615 L14.8931419,39.8586875 L23.2869537,33.1615 L39.5935566,33.1615 L39.5935566,16.8653125 L14.8931419,16.8653125 L14.8931419,33.1615 L14.8931419,33.1615 Z" id="Shape" sketch:type="MSShapeGroup"></path>
            </g>
        </g>
    </g>
</svg>