<?xml version="1.0" encoding="UTF-8" standalone="no"?>
<svg width="56px" height="54px" viewBox="0 0 56 54" version="1.1" xmlns="http://www.w3.org/2000/svg" xmlns:xlink="http://www.w3.org/1999/xlink" xmlns:sketch="http://www.bohemiancoding.com/sketch/ns">
    <!-- Generator: Sketch 3.4.3 (16618) - http://www.bohemiancoding.com/sketch -->
    <title>star</title>
    <desc>Created with Sketch.</desc>
    <defs></defs>
    <g id="Page-1" stroke="none" stroke-width="1" fill="none" fill-rule="evenodd" sketch:type="MSPage">
        <g id="Desktop" sketch:type="MSArtboardGroup" transform="translate(-484.000000, -754.000000)" fill="#4990E2">
            <path d="M537.563409,772.234533 L522.141947,770.768663 C521.169793,770.679823 520.329763,770.057938 519.932505,769.125112 L514.408901,755.665761 C513.525124,753.444746 510.387274,753.444746 509.503498,755.665761 L504.024082,769.125112 C503.670571,770.057938 502.786794,770.679823 501.81464,770.768663 L486.392736,772.234533 C484.094916,772.456635 483.166951,775.343954 484.890315,776.898665 L496.51198,787.159754 C497.26319,787.826058 497.572512,788.803305 497.351568,789.780552 L493.860649,804.172285 C493.330383,806.438164 495.760769,808.303372 497.793456,807.104469 L510.652407,799.508153 C511.491995,799.01953 512.508339,799.01953 513.347927,799.508153 L526.20732,807.104469 C528.240006,808.303372 530.670393,806.482584 530.139685,804.172285 L526.692955,789.780552 C526.472011,788.803305 526.781333,787.826058 527.532543,787.159754 L539.154207,776.898665 C540.833383,775.343954 539.861229,772.456635 537.563409,772.234533 L537.563409,772.234533 Z" id="star" sketch:type="MSShapeGroup"></path>
        </g>
    </g>
</svg>